<?xml version="1.0" encoding="UTF-8"?>
<!DOCTYPE svg PUBLIC "-//W3C//DTD SVG 1.1//EN" "http://www.w3.org/Graphics/SVG/1.1/DTD/svg11.dtd">
<!-- Creator: CorelDRAW X8 -->
<svg xmlns="http://www.w3.org/2000/svg" xml:space="preserve" width="564.444mm" height="1305.28mm" version="1.1" style="shape-rendering:geometricPrecision; text-rendering:geometricPrecision; image-rendering:optimizeQuality; fill-rule:evenodd; clip-rule:evenodd"
viewBox="0 0 56444 130528"
 xmlns:xlink="http://www.w3.org/1999/xlink">
 <defs>
  <style type="text/css">
   <![CDATA[
    .fil0 {fill:#F6F6FF}
    .fil2 {fill:white}
    .fil1 {fill:url(#id0)}
   ]]>
  </style>
  <linearGradient id="id0" gradientUnits="userSpaceOnUse" x1="53821.4" y1="56005.1" x2="2623.01" y2="74913.5">
   <stop offset="0" style="stop-opacity:1; stop-color:#1B2048"/>
   <stop offset="1" style="stop-opacity:1; stop-color:#2B3384"/>
  </linearGradient>
 </defs>
 <g id="Слой_x0020_1">
  <metadata id="CorelCorpID_0Corel-Layer"/>
  <path class="fil0" d="M56444 1656c-7582,-1665 -8379,3472 -15454,3034 -4586,-284 -7705,-2954 -13052,-2924 -3778,21 -5967,2173 -10017,1641 -3839,-504 -8431,-3140 -17921,1989l0 51633 56444 0 0 -55373z"/>
  <path class="fil1" d="M56444 46688c-7582,-1665 -8379,3472 -15454,3034 -4586,-284 -7705,-2954 -13052,-2924 -3778,21 -5967,2173 -10017,1641 -3839,-504 -8431,-3140 -17921,1989l0 34136 56444 0 0 -37876z"/>
  <path class="fil0" d="M0 68843c20426,-1974 12100,11588 34431,6987 3793,-782 12524,-2873 22013,2256l0 24590 -56444 0 0 -33833z"/>
  <path class="fil2" d="M56444 92652c-7582,-1665 -8379,3472 -15454,3034 -4586,-284 -7705,-2954 -13052,-2924 -3778,21 -5967,2173 -10017,1641 -3839,-504 -8431,-3139 -17921,1989l0 34136 56444 0 0 -37876z"/>
 </g>
</svg>
